<?xml version="1.0" encoding="utf-8"?>
<!-- Generator: Adobe Illustrator 25.1.0, SVG Export Plug-In . SVG Version: 6.00 Build 0)  -->
<svg version="1.1" id="Layer_1" xmlns="http://www.w3.org/2000/svg" xmlns:xlink="http://www.w3.org/1999/xlink" x="0px" y="0px"
	 viewBox="0 0 16.3 24" style="enable-background:new 0 0 16.3 24;" xml:space="preserve">
<style type="text/css">
	.st0{fill:#FFFFFF;}
</style>
<path class="st0" d="M8.1,2c2.1,0,4,1.7,4,3.7c0,2.1-1.7,4.9-4,8.6c-2.3-3.6-4-6.5-4-8.6C4.1,3.7,6,2,8.1,2z M8.1,0
	c-3.1,0-6,2.6-6,5.7c0,3.1,2.6,6.9,6,12.3c3.4-5.4,6-9.1,6-12.3C14.1,2.6,11.3,0,8.1,0z M8.1,8c-1.1,0-2-0.9-2-2s0.9-2,2-2
	s2,0.9,2,2S9.3,8,8.1,8z M16.1,20c0,2.2-3.6,4-8,4s-8-1.8-8-4c0-1.6,1.9-3,4.6-3.6l1.2,1.8c-0.4,0.1-0.8,0.1-1.2,0.2
	c-3.3,0.9-3.5,2.1,0,3.1c2.1,0.6,4.8,0.6,6.9,0c3.6-1,3.2-2.3-0.3-3.2c-0.3-0.1-0.6-0.1-0.9-0.2l1.2-1.8C14.3,17,16.1,18.4,16.1,20z
	"/>
</svg>
